HIERARCHY
ROOT Hips
{
	OFFSET -3.958830 18.904000 13.208200
	CHANNELS 6 Xposition Yposition Zposition Zrotation Yrotation Xrotation 
	JOINT LHipJoint
	{
		OFFSET 0.000000 0.000000 0.000000
		CHANNELS 3 Zrotation Yrotation Xrotation
		JOINT LeftUpLeg
		{
			OFFSET 1.800000 -1.400000 0.085000
			CHANNELS 3 Zrotation Yrotation Xrotation
			JOINT LeftLeg
			{
				OFFSET 2.215000 -6.000000 0.000000
				CHANNELS 3 Zrotation Yrotation Xrotation
				JOINT LeftFoot
				{
					OFFSET 2.500000 -6.900000 0.000000
					CHANNELS 3 Zrotation Yrotation Xrotation
					JOINT LeftToeBase
					{
						OFFSET 0.200000 -0.500000 1.950000
						CHANNELS 3 Zrotation Yrotation Xrotation
						End Site
						{
							OFFSET 0.000000 0.000000 0.000000
						}
					}
				}
			}
		}
	}
	JOINT RHipJoint
	{
		OFFSET 0.000000 0.000000 0.000000
		CHANNELS 3 Zrotation Yrotation Xrotation
		JOINT RightUpLeg
		{
			OFFSET -1.800000 -1.400000 0.085000
			CHANNELS 3 Zrotation Yrotation Xrotation
			JOINT RightLeg
			{
				OFFSET -2.215000 -6.000000 0.000000
				CHANNELS 3 Zrotation Yrotation Xrotation
				JOINT RightFoot
				{
					OFFSET -2.500000 -6.900000 0.000000
					CHANNELS 3 Zrotation Yrotation Xrotation
					JOINT RightToeBase
					{
						OFFSET -0.200000 -0.500000 1.950000
						CHANNELS 3 Zrotation Yrotation Xrotation
						End Site
						{
							OFFSET 0.000000 0.000000 0.000000
						}
					}
				}
			}
		}
	}
	JOINT LowerBack
	{
		OFFSET 0.000000 0.000000 0.000000
		CHANNELS 3 Zrotation Yrotation Xrotation
		JOINT Spine
		{
			OFFSET -0.087000 1.940000 -0.288900
			CHANNELS 3 Zrotation Yrotation Xrotation
			JOINT Spine1
			{
				OFFSET 0.000000 1.950000 0.060000
				CHANNELS 3 Zrotation Yrotation Xrotation
				JOINT Neck
				{
					OFFSET 0.000000 0.000000 0.000000
					CHANNELS 3 Zrotation Yrotation Xrotation
					JOINT Neck1
					{
						OFFSET 0.000000 1.600000 0.340000
						CHANNELS 3 Zrotation Yrotation Xrotation
						JOINT Head
						{
							OFFSET 0.000000 1.667000 -0.240000
							CHANNELS 3 Zrotation Yrotation Xrotation
							End Site
							{
								OFFSET 0.000000 0.000000 0.000000
							}
						}
					}
				}
				JOINT LeftShoulder
				{
					OFFSET 0.000000 0.000000 0.000000
					CHANNELS 3 Zrotation Yrotation Xrotation
					JOINT LeftArm
					{
						OFFSET 2.700000 1.550000 -0.730000
						CHANNELS 3 Zrotation Yrotation Xrotation
						JOINT LeftForeArm
						{
							OFFSET 5.450000 0.000000 0.000000
							CHANNELS 3 Zrotation Yrotation Xrotation
							JOINT LeftHand
							{
								OFFSET 3.450000 0.000000 0.000000
								CHANNELS 3 Zrotation Yrotation Xrotation
								JOINT LeftHandIndex1
								{
									OFFSET 0.750000 0.000000 0.000000
									CHANNELS 3 Zrotation Yrotation Xrotation
									End Site
									{
										OFFSET 0.000000 0.000000 0.000000
									}
								}
							}
						}
					}
				}
				JOINT RightShoulder
				{
					OFFSET 0.000000 0.000000 0.000000
					CHANNELS 3 Zrotation Yrotation Xrotation
					JOINT RightArm
					{
						OFFSET -2.700000 1.550000 -0.730000
						CHANNELS 3 Zrotation Yrotation Xrotation
						JOINT RightForeArm
						{
							OFFSET -5.450000 0.000000 0.000000
							CHANNELS 3 Zrotation Yrotation Xrotation
							JOINT RightHand
							{
								OFFSET -3.450000 0.000000 0.000000
								CHANNELS 3 Zrotation Yrotation Xrotation
								JOINT RightHandIndex1
								{
									OFFSET -0.750000 0.000000 0.000000
									CHANNELS 3 Zrotation Yrotation Xrotation
									End Site
									{
										OFFSET 0.000000 0.000000 0.000000
									}
								}
							}
						}
					}
				}
			}
		}
	}
}
MOTION
Frames: 13
Frame Time: 0.016667
0.530430 17.567300 -2.231650 -3.885502 -8.123878 -8.852647 -14.990879 13.126064 2.648052 13.619570 0.759445 6.237886 -9.080843 7.341155 7.587218 0.519460 5.390725 2.781966 0.089370 -0.094580 0.179260 18.482381 -11.232127 2.257503 -12.136440 -2.768855 1.699048 11.663791 -8.747065 15.204252 -0.580217 -5.169236 2.646876 -0.134000 -0.085720 0.084210 -4.076629 -0.934163 -6.340628 13.555535 0.641684 -6.987908 1.833140 -2.002127 7.499720 2.101234 -0.499574 -11.056245 -4.943269 0.825065 48.308269 -1.142550 0.826600 3.003550 -20.165897 -7.220638 6.200347 -63.448701 -3.072178 -3.356963 -15.584393 -25.701657 1.682618 -3.544675 3.029486 0.254200 -0.064770 0.099390 0.012100 16.470875 6.707459 7.654617 58.760003 -6.041001 -9.741436 3.474650 22.509348 -0.293893 2.531895 -1.215826 0.003410 -0.067660 -0.049750 -0.109860 
0.536990 17.618760 -2.228650 -3.829168 -8.791619 -8.573226 -14.993954 13.155402 2.696973 13.406565 0.757139 6.138306 -9.232292 7.257463 7.108314 0.512459 5.365510 2.794503 0.102590 -0.074800 0.189420 18.474611 -11.232029 2.214769 -12.008258 -2.637742 0.900730 11.234353 -8.691990 15.917846 -0.562127 -5.100006 2.668738 -0.121110 -0.089650 0.085270 -4.057655 -1.014162 -6.358679 13.834641 0.454946 -6.513012 1.974161 -2.158273 7.170277 1.980213 -0.774022 -10.666867 -5.371679 0.929158 46.740324 -1.596160 1.194300 1.714310 -19.861036 -6.371593 5.848546 -62.935334 -3.021664 -3.198911 -16.719062 -25.221722 1.902835 -3.551546 3.031701 0.256070 -0.065290 0.104970 0.016270 16.362758 6.032687 7.229013 58.841254 -5.675481 -9.782912 2.469484 22.475158 -0.441179 2.529518 -1.215146 0.003470 -0.060750 -0.057830 -0.111820 
0.547570 17.753610 -2.236170 -4.228674 -10.638727 -8.190875 -14.974014 13.236641 2.782748 13.140857 0.640850 5.951739 -8.724726 6.924971 6.268154 0.507683 5.252192 2.838573 0.112950 -0.045440 0.189380 18.472185 -11.295398 2.141321 -10.993557 -2.247296 -1.538175 10.053414 -8.585999 18.389617 -0.504314 -4.955301 2.710957 -0.106800 -0.082610 0.099550 -4.063900 -1.067140 -6.420449 14.596903 0.213419 -5.392364 2.326101 -2.408310 6.675390 1.931885 -0.320237 -10.490772 -4.192002 0.854577 45.042199 -2.068370 2.051800 1.247750 -20.823577 -7.311933 5.896274 -60.861155 -3.138501 -2.910865 -17.610996 -23.921090 1.989085 -3.575721 3.064182 0.226940 -0.042700 0.105170 0.028690 17.320337 6.545088 6.932075 57.430157 -4.981986 -9.075449 0.247426 20.399674 -0.706452 2.551474 -1.235963 0.017640 -0.071720 -0.072640 -0.102220 
0.565730 17.882490 -2.260590 -4.699244 -12.715328 -7.986875 -14.940399 13.422208 2.826996 12.667301 0.490059 4.982820 -7.817773 6.699905 6.830376 0.453743 5.096031 2.887634 0.108160 -0.040480 0.199300 18.456429 -11.404220 2.099465 -9.606354 -1.550167 -5.293365 8.339224 -8.448145 22.296606 -0.432297 -4.813197 2.733845 -0.099150 -0.073760 0.108350 -4.049289 -1.174299 -6.540071 15.229199 -0.353836 -3.372803 2.627800 -2.814205 6.487822 2.006222 0.729688 -10.807421 -1.893617 0.667819 44.259104 -2.585490 3.201720 1.205810 -21.221412 -9.886390 6.364478 -58.761237 -4.129089 -2.185131 -18.477635 -21.016946 1.834549 -3.617202 3.077742 0.207800 -0.016040 0.101280 0.024410 17.454672 8.223815 6.941145 56.290874 -3.352018 -7.976738 -0.004914 17.686988 -0.685812 2.582145 -1.244138 0.015100 -0.075460 -0.074790 -0.107380 
0.591940 17.978290 -2.309380 -5.235905 -14.729704 -7.591407 -14.910165 13.632523 2.821946 12.540234 0.261964 3.191142 -6.987203 6.594173 8.228514 0.354532 4.966816 2.926601 0.096610 -0.056940 0.202400 18.437223 -11.458925 2.135039 -7.598755 -0.492514 -10.019480 5.807747 -7.878233 26.451658 -0.349296 -4.655927 2.750352 -0.086340 -0.045180 0.114530 -4.013059 -1.358644 -6.688504 15.787111 -0.867696 -0.610015 3.412713 -3.024091 6.523494 1.747657 1.298518 -10.994588 -0.631769 0.608339 42.505840 -2.870120 3.878790 0.999570 -20.141409 -11.871570 6.460784 -56.867100 -6.312461 -1.020420 -20.293287 -18.422526 1.835364 -3.677685 3.099457 0.192740 0.018050 0.073890 0.014690 16.816737 9.645723 6.946046 55.073475 -1.791965 -7.334342 0.839840 16.542447 -0.613453 2.579715 -1.262684 -0.007980 -0.068440 -0.059970 -0.119600 
0.614180 18.049950 -2.353130 -5.657485 -16.413616 -7.236168 -14.891205 13.802432 2.771790 12.570066 0.046864 1.284663 -6.378941 6.604934 10.005891 0.281900 4.869129 2.946204 0.108070 -0.037170 0.192990 18.422681 -11.370205 2.284220 -6.376472 0.658373 -14.800175 4.893912 -7.590907 29.114909 -0.300268 -4.560368 2.751619 -0.062790 -0.019440 0.117800 -3.982998 -1.665225 -6.852315 16.304026 -1.569407 2.012901 4.472038 -3.408292 6.711990 1.109474 0.789404 -11.257751 -1.636436 1.373682 41.772629 -2.429210 4.225060 0.753130 -18.242386 -13.377524 6.558158 -54.764848 -8.556105 -0.029447 -22.470612 -17.418104 2.047683 -3.702564 3.139547 0.178400 0.036030 0.058350 0.025610 16.179511 11.363433 6.977758 53.431815 0.090472 -6.272333 1.756929 14.121683 -0.475542 2.598368 -1.276331 -0.013430 -0.056470 -0.057030 -0.113310 
0.646400 18.109590 -2.399750 -6.120849 -17.517900 -6.512777 -14.895752 13.860718 2.721946 12.733294 -0.209497 -0.466644 -5.954062 6.473614 10.701327 0.223129 4.732995 2.971633 0.147540 0.024450 0.194610 18.413541 -11.090936 2.594669 -5.865596 2.306464 -21.167243 5.520566 -8.022834 32.469959 -0.314266 -4.713490 2.652326 -0.022010 -0.015160 0.122160 -3.955037 -2.019364 -7.106870 16.948460 -2.531272 5.043471 5.050335 -3.829211 6.442221 0.662357 0.336356 -11.244907 -2.368163 2.282531 40.528411 -1.535930 4.610520 -0.528000 -17.123100 -14.021480 6.399671 -52.105061 -9.951662 0.282785 -22.892845 -17.501566 2.146419 -3.699465 3.177353 0.170290 0.036140 0.063870 0.045300 15.930330 12.205370 6.765743 51.244769 1.540316 -5.807285 3.019134 13.920198 -0.398543 2.592461 -1.295998 -0.003690 -0.049930 -0.073060 -0.102460 
0.676860 18.142370 -2.468690 -6.578608 -18.562623 -5.343284 -14.911603 13.830735 2.632613 12.938503 -0.510773 -2.296570 -5.384928 6.249792 11.096579 0.167055 4.570579 3.011687 0.170790 0.063740 0.200820 18.417140 -10.659442 3.093724 -5.903630 4.138903 -27.798692 7.684666 -8.483322 32.962687 -0.300959 -4.678238 2.628573 0.003780 -0.006130 0.130860 -3.949029 -2.367178 -7.405542 17.567463 -3.659906 8.024449 5.103515 -4.323849 6.156753 0.404005 -0.039238 -11.450992 -2.916637 3.329343 39.905122 -1.460710 5.613180 -1.074480 -16.976102 -15.525992 6.605601 -47.659205 -10.672073 0.630369 -21.711449 -16.353401 1.900109 -3.714335 3.181453 0.156600 0.047930 0.067190 0.058520 16.276403 13.866557 6.681231 49.027728 3.605436 -4.949457 3.188253 12.828945 -0.384448 2.603676 -1.311094 0.003420 -0.046380 -0.084660 -0.095460 
0.720500 18.150050 -2.544310 -7.305540 -19.483131 -3.825727 -14.932121 13.637586 2.559436 13.420384 -0.844074 -3.100074 -5.527233 6.113106 10.493483 0.126090 4.526825 3.021509 0.172030 0.068780 0.209850 18.450214 -10.100800 3.720879 -6.723838 5.999201 -34.570382 11.649844 -8.801441 30.318915 -0.248694 -4.415008 2.687676 0.018690 0.005030 0.142810 -4.015374 -2.567281 -7.727429 18.786825 -4.718709 10.751346 4.301663 -4.621107 5.933014 0.500037 -0.023147 -11.600562 -2.655006 4.070977 39.488195 -2.290450 6.945560 -1.181030 -18.151282 -17.228122 6.848581 -41.483356 -10.959972 0.971434 -19.129345 -15.135448 1.587349 -3.754045 3.159157 0.143110 0.074570 0.057480 0.052220 17.182997 15.431136 6.585191 46.669453 5.625406 -4.034469 3.247592 11.880566 -0.372254 2.605596 -1.321868 -0.003250 -0.049250 -0.078170 -0.104960 
0.753160 18.132680 -2.609920 -8.113524 -20.358290 -2.223848 -14.976146 13.454793 2.481803 14.281711 -1.270629 -4.463220 -5.895546 6.122491 10.503126 0.084857 4.531467 3.012533 0.164840 0.065680 0.211430 18.470299 -9.527683 4.341456 -7.135406 7.876293 -41.055350 13.766750 -8.188517 27.376792 -0.172617 -3.961449 2.832349 0.031250 0.029340 0.150050 -4.020066 -2.813732 -8.023690 19.668110 -5.748249 13.714528 4.034840 -4.796194 5.481893 0.506930 -0.151151 -11.615144 -2.599935 5.032206 38.619977 -2.871110 8.314900 -1.374160 -19.571845 -18.209036 6.902110 -35.004400 -10.738225 1.056821 -16.617664 -13.918142 1.310744 -3.798970 3.131437 0.127890 0.105510 0.041460 0.048070 18.606025 16.443972 6.347577 43.524044 7.185678 -3.496158 3.381011 11.976371 -0.371246 2.592379 -1.322403 -0.017500 -0.041340 -0.067970 -0.111850 
0.804080 18.118490 -2.677310 -9.081730 -21.438727 -1.223806 -15.013260 13.354695 2.375148 14.952209 -1.584964 -5.137097 -5.385156 6.030569 10.879718 0.042632 4.503450 3.004360 0.170760 0.075850 0.236590 18.489643 -9.021893 4.911884 -8.157273 9.348014 -46.853502 15.103635 -7.334803 24.401920 -0.119334 -3.482709 2.985995 0.039330 0.016560 0.154170 -4.023427 -3.087319 -8.261905 21.060828 -6.980160 17.335590 3.176227 -4.835850 5.181617 0.805611 -0.656767 -11.770847 -3.380298 6.530610 39.054070 -3.784240 10.220010 -2.337290 -20.778826 -18.903998 6.999794 -28.323218 -9.950420 0.759501 -14.198906 -13.529559 1.154510 -3.805566 3.095625 0.146610 0.106950 0.058020 0.033800 19.238139 17.522164 6.234698 40.473232 8.897387 -3.041026 4.259865 12.409128 -0.256323 2.581984 -1.292064 -0.024690 -0.034960 -0.063030 -0.131450 
0.846930 18.070280 -2.734180 -9.574151 -22.707481 -0.123881 -15.068804 13.169149 2.205532 15.037587 -1.849631 -5.568572 -4.806430 5.901989 11.295419 -0.027901 4.471627 3.014572 0.173040 0.074510 0.258660 18.529454 -8.496024 5.543340 -9.829469 10.714105 -53.889699 15.020311 -6.723488 23.699052 -0.087824 -3.271487 3.044471 0.062440 0.028820 0.153010 -4.054035 -3.220445 -8.438089 21.797613 -7.718876 20.584771 2.546876 -4.510147 4.945516 0.904772 -1.313785 -11.279953 -4.298850 7.943672 38.142305 -4.828180 11.843650 -3.297630 -21.546521 -18.251398 6.441017 -22.406630 -9.615001 0.337265 -10.467722 -14.178942 0.990277 -3.841381 3.057761 0.154990 0.128200 0.046470 0.020810 19.867398 17.418411 5.785128 37.079926 10.338576 -2.746282 5.619350 13.840656 -0.101831 2.546552 -1.275840 -0.054800 -0.015030 -0.051000 -0.156400 
0.871280 18.013670 -2.791130 -9.828658 -24.174696 0.483255 -15.156755 13.004926 2.078020 14.992365 -2.008938 -5.286509 -4.607233 5.827502 11.160421 -0.053799 4.467944 3.009182 0.184510 0.089760 0.283080 18.545065 -7.938616 6.139570 -11.339696 12.119454 -60.498412 14.173113 -6.616013 25.574426 -0.118088 -3.365945 2.995230 0.078550 0.016490 0.156250 -3.999049 -3.502233 -8.635195 21.540996 -8.206978 24.245535 2.785027 -4.214670 4.851562 0.761163 -2.311902 -11.024515 -6.011120 9.672913 37.928728 -5.817350 13.531220 -4.352380 -21.551118 -17.471567 6.123340 -17.150095 -8.440164 -0.293904 -6.799064 -15.514552 0.829960 -3.841445 3.049651 0.167810 0.129460 0.056650 0.007600 20.284078 17.588524 5.433037 33.850375 11.945519 -2.395233 5.744053 14.577893 0.006335 2.536352 -1.253110 -0.062040 -0.011100 -0.047130 -0.174490 
